<?xml version="1.0"?><svg id="a" xmlns="http://www.w3.org/2000/svg" viewBox="0 0 64 64"><path id="b" d="M16.14,31.71c-.11-.04-.24-.22-.24-.22l-1.38-1.85s-.05-.07-.04-.11c.02-.05.06-.04.11-.05,2.05-.35,4.11-.75,6.21-1.45,2.01-.67,4.18-1.46,6.27-2.93,2.3-1.62,3.44-2.94,4.54-4.45,1.68-2.31,2.69-4.54,3.25-6.13.04-.12.07-.14.11-.14.03,0,.07,0,.08.08.01.13-.11,5.14-.15,5.63-.04.42-.11,1-.39,1.64-1.06,2.37-2.91,4.41-5.36,6.24-4.2,3.12-8.62,3.73-12.69,3.79-.11,0-.19,0-.31-.03h0ZM25.28,43.46c-.13.06-.21.11-.36.13-.15.02-.39-.11-.39-.11l-2.53-1.33s-.1-.05-.1-.1c0-.06.04-.08.09-.11,2.1-1.5,4.19-3.05,6.16-4.96,1.88-1.83,3.88-3.87,5.43-6.64,1.7-3.05,2.26-5.13,2.68-7.41.64-3.48.57-6.52.34-8.59-.02-.15,0-.19.05-.21.04-.01.08-.03.12.04.08.14,2.64,5.8,2.85,6.37.18.49.42,1.17.44,2.04.09,3.21-.88,6.49-2.64,9.84-3.01,5.74-7.62,8.79-12.14,11.04h0ZM42.56,50.25c-.1.13-.16.23-.3.33-.14.1-.47.09-.47.09h-3.35s-.13,0-.16-.05c-.04-.06,0-.1.03-.17,1.36-2.69,2.69-5.44,3.68-8.49.95-2.92,1.92-6.12,2.01-9.83.11-4.08-.44-6.54-1.25-9.13-1.23-3.95-2.96-7.06-4.32-9.08-.1-.15-.11-.2-.06-.25.07-.07.17-.07.17-.07h3.32s.32,0,.44.07c.12.07.21.17.26.24,3.59,5.06,6.57,10.77,6.57,18.29s-3.11,13.26-6.57,18.05h0Z" style="fill:#fabc13; fill-rule:evenodd;"></path></svg>